<?xml version="1.0" encoding="UTF-8"?>
<svg id="Layer_1" data-name="Layer 1" xmlns="http://www.w3.org/2000/svg" xmlns:xlink="http://www.w3.org/1999/xlink" viewBox="0 0 1920 1080">
  <defs>
    <style>
      .cls-1 {
        opacity: .2;
      }

      .cls-2 {
        fill: #235eb5;
      }

      .cls-3 {
        fill: url(#linear-gradient);
      }

      .cls-4 {
        opacity: .27;
      }
    </style>
    <linearGradient id="linear-gradient" x1="-1070.34" y1="-1706.73" x2="545.34" y2="1091.73" gradientUnits="userSpaceOnUse">
      <stop offset=".12" stop-color="#3cf"/>
      <stop offset="1" stop-color="#235eb5"/>
    </linearGradient>
  </defs>
  <g class="cls-4">
    <circle class="cls-2" cx="2248" cy="613" r="895"/>
  </g>
  <g class="cls-1">
    <path class="cls-3" d="m-262.5,1308c-109.35,0-218.75-11.04-325.16-32.81-103.91-21.26-206.12-52.99-303.79-94.3-95.81-40.52-188.19-90.66-274.57-149.02-85.46-57.73-165.81-124.03-238.81-197.03-73.01-73.01-139.3-153.35-197.03-238.81-58.36-86.38-108.5-178.76-149.02-274.57-41.31-97.67-73.04-199.88-94.3-303.79-21.77-106.41-32.81-215.81-32.81-325.16s11.04-218.75,32.81-325.16c21.26-103.91,52.99-206.12,94.3-303.79,40.52-95.81,90.66-188.19,149.02-274.57,57.73-85.46,124.03-165.81,197.03-238.81s153.35-139.3,238.81-197.03c86.38-58.36,178.76-108.5,274.57-149.02,97.67-41.31,199.88-73.04,303.79-94.3,106.41-21.77,215.81-32.81,325.16-32.81s218.75,11.04,325.16,32.81c103.91,21.26,206.12,52.99,303.79,94.3,95.81,40.52,188.19,90.66,274.57,149.02,85.46,57.73,165.81,124.03,238.81,197.03,73,73.01,139.3,153.35,197.03,238.81,58.36,86.38,108.5,178.76,149.02,274.57,41.31,97.67,73.04,199.88,94.3,303.79,21.77,106.41,32.81,215.81,32.81,325.16s-11.04,218.75-32.81,325.16c-21.26,103.91-52.99,206.12-94.3,303.79-40.52,95.81-90.66,188.19-149.02,274.57-57.73,85.46-124.03,165.81-197.03,238.81-73.01,73-153.35,139.3-238.81,197.03-86.38,58.36-178.76,108.5-274.57,149.02-97.67,41.31-199.88,73.04-303.79,94.3-106.41,21.77-215.81,32.81-325.16,32.81Zm0-2431c-449.67,0-815.5,365.83-815.5,815.5S-712.17,508-262.5,508,553,142.17,553-307.5s-365.83-815.5-815.5-815.5Z"/>
  </g>
</svg>