<?xml version="1.0" encoding="UTF-8"?>
<svg id="Layer_2" data-name="Layer 2" xmlns="http://www.w3.org/2000/svg" viewBox="0 0 564 316">
  <defs>
    <style>
      .cls-1 {
        fill: #002b7f;
      }

      .cls-2 {
        fill: #ce1126;
      }

      .cls-3 {
        fill: #fdfdfe;
      }
    </style>
  </defs>
  <g id="Layer_1-2" data-name="Layer 1">
    <rect class="cls-2" x="0" width="564" height="316" rx="50.36" ry="50.36"/>
    <path class="cls-1" d="m49.09,0h244.91v162.85c0,10.57-8.58,19.15-19.15,19.15H19.15c-10.57,0-19.15-8.58-19.15-19.15V49.09C0,21.99,21.99,0,49.09,0Z"/>
    <g>
      <path class="cls-3" d="m148.16,157.55c-3.75-1.74-6.75-4.61-10.08-6.94-1.97-1.38-3.19-1.13-4.81.07-3.31,2.45-6.65,4.86-10.56,7.72,1.39-4.45,2.49-8.35,3.84-12.15.86-2.42.59-3.93-1.84-5.39-3.29-1.97-6.24-4.49-9.2-7.44,4.23,0,8.46-.15,12.67.06,2.03.1,2.89-.67,3.39-2.44.98-3.44,2.08-6.84,3.07-10.28.19-.67.53-1.21,1.12-1.27.95-.09.58.82.76,1.33,1.2,3.41,2.57,6.78,3.55,10.25.52,1.83,1.28,2.44,3.14,2.39,4.3-.12,8.6-.04,13.74-.04-4.3,3.17-7.95,5.99-11.75,8.59-1.2.82-1.27,1.31-.79,2.61,1.51,4.15,2.79,8.39,4.15,12.59-.15.1-.28.22-.4.35Z"/>
      <path class="cls-3" d="m71.52,68.33c3.99,0,7.23-.12,10.44.04,2.02.1,3.08-.4,3.61-2.55.75-3.02,1.95-5.92,3.16-9.48,1.27,3.74,2.53,6.87,3.35,10.11.41,1.62,1.16,1.9,2.53,1.88,3.45-.03,6.9-.01,11.16-.01-3.49,2.54-6.32,4.7-9.26,6.69-1.01.68-1.29,1.04-.8,2.34,1.25,3.34,2.15,6.8,3.38,10.83-3.23-2.23-6.12-3.95-8.67-6.09-1.53-1.29-2.58-.74-3.76.06-2.52,1.74-4.98,3.57-8.22,5.9,1.04-3.57,1.6-6.44,2.73-9.07,1.06-2.46.11-3.77-1.73-5.04-2.45-1.7-4.86-3.44-7.93-5.63Z"/>
      <path class="cls-3" d="m152.46,30.14c-3.14,2.34-5.61,4.42-8.32,6.1-1.71,1.06-1.74,2.18-1.21,3.76,1.01,2.97,1.98,5.94,3.11,9.34-3.59-1.52-5.97-3.9-8.61-5.82-1.58-1.15-2.44-.8-3.66.11-2.56,1.92-5.14,3.81-8.13,6.02.48-3.72,1.61-6.72,2.86-9.64.82-1.91.08-2.96-1.31-3.97-2.48-1.8-5.15-3.37-7.89-6.09,3.77,0,6.89-.15,9.99.05,2.07.13,2.89-.69,3.33-2.56.57-2.41,1.35-4.76,2.04-7.14.18-.64.56-1.15,1.24-1.14.75.01.43.75.62,1.16,1.4,3.08,1.14,7.62,3.86,9.13,2.6,1.45,6.58.42,9.95.5.48.01.96.08,2.13.18Z"/>
      <path class="cls-3" d="m199,61.13c-2.56,2.33-5.22,4.17-7.77,6.2-1.17.94-1.39,1.63-.82,2.97.77,1.8,1.27,3.71,1.9,5.57.26.78.51,1.69-.22,2.22-.66.49-1.31-.1-1.87-.6-.29-.26-.69-.39-1.02-.61q-5.92-4.06-11.65.49c-.92.73-1.92,1.38-3.52,2.53,1.16-3.63,2.13-6.56,3.02-9.52.41-1.36.48-2.41-1.2-3.39-2.54-1.47-4.75-3.51-7.85-5.88,3.78,0,6.61-.11,9.42.04,1.9.1,2.89-.45,3.41-2.39.74-2.79,1.82-5.49,3.02-9,1.18,3.63,2.42,6.51,2.97,9.52.33,1.8,1.14,1.83,2.41,1.83,3.25,0,6.51,0,9.76,0Z"/>
      <path class="cls-3" d="m159.49,89.77q1.78,7.36,8.68,7.51c-.26,1.8-1.92,2.17-3.02,2.93-1.44,1-2.1,1.8-1.11,3.61.79,1.43,1.02,3.17,1.5,4.79-.31.06-.43.12-.47.08-3.95-3.72-7.89-5.12-12.17.51,2.65-5.52,2.39-9.72-4.29-11.84.28-.25.56-.5.85-.76,1.56,0,3.13-.1,4.68.03,1.86.15,2.89-.34,3.36-2.38.34-1.48.58-3.22,1.99-4.49Z"/>
      <path class="cls-3" d="m148.56,157.2c.02.23.04.47.05.7-.15-.12-.3-.23-.45-.35.12-.13.26-.25.4-.35Z"/>
    </g>
  </g>
</svg>